<?xml version="1.0" encoding="UTF-8" standalone="no"?>
<!-- Generator: Adobe Illustrator 16.0.0, SVG Export Plug-In . SVG Version: 6.00 Build 0)  -->

<svg
   xmlns:osb="http://www.openswatchbook.org/uri/2009/osb"
   xmlns:dc="http://purl.org/dc/elements/1.1/"
   xmlns:cc="http://creativecommons.org/ns#"
   xmlns:rdf="http://www.w3.org/1999/02/22-rdf-syntax-ns#"
   xmlns:svg="http://www.w3.org/2000/svg"
   xmlns="http://www.w3.org/2000/svg"
   xmlns:xlink="http://www.w3.org/1999/xlink"
   xmlns:sodipodi="http://sodipodi.sourceforge.net/DTD/sodipodi-0.dtd"
   xmlns:inkscape="http://www.inkscape.org/namespaces/inkscape"
   version="1.1"
   id="Layer_1"
   x="0px"
   y="0px"
   width="37.40625"
   height="37.407116"
   viewBox="0 0 37.40625 37.407116"
   enable-background="new 0 0 32 32"
   xml:space="preserve"
   inkscape:version="0.91 r13725"
   sodipodi:docname="map_marker.svg"
   inkscape:export-filename="/Users/wboykinm/github/hrc-events/images/map_marker.png"
   inkscape:export-xdpi="90"
   inkscape:export-ydpi="90"><metadata
     id="metadata25"><rdf:RDF><cc:Work
         rdf:about=""><dc:format>image/svg+xml</dc:format><dc:type
           rdf:resource="http://purl.org/dc/dcmitype/StillImage" /><dc:title></dc:title></cc:Work></rdf:RDF></metadata><defs
     id="defs23"><linearGradient
       id="linearGradient5611"
       osb:paint="solid"><stop
         style="stop-color:#12a8e0;stop-opacity:1;"
         offset="0"
         id="stop5613" /></linearGradient><linearGradient
       inkscape:collect="always"
       id="linearGradient4155"
       osb:paint="gradient"><stop
         style="stop-color:#12a8e0;stop-opacity:1;"
         offset="0"
         id="stop4157" /><stop
         style="stop-color:#12a8e0;stop-opacity:0;"
         offset="1"
         id="stop4159" /></linearGradient><linearGradient
       inkscape:collect="always"
       xlink:href="#linearGradient5611"
       id="linearGradient5615"
       x1="2.0009999"
       y1="16.0005"
       x2="30.000999"
       y2="16.0005"
       gradientUnits="userSpaceOnUse" /></defs><sodipodi:namedview
     pagecolor="#ffffff"
     bordercolor="#666666"
     borderopacity="1"
     objecttolerance="10"
     gridtolerance="10"
     guidetolerance="10"
     inkscape:pageopacity="0"
     inkscape:pageshadow="2"
     inkscape:window-width="1189"
     inkscape:window-height="695"
     id="namedview21"
     showgrid="false"
     inkscape:zoom="7.375"
     inkscape:cx="18.701172"
     inkscape:cy="18.70399"
     inkscape:window-x="0"
     inkscape:window-y="0"
     inkscape:window-maximized="0"
     inkscape:current-layer="g11"
     fit-margin-top="4"
     fit-margin-left="4"
     fit-margin-right="4"
     fit-margin-bottom="4" /><g
     id="g3"
     style="fill:#12a8e0;fill-opacity:1;stroke-width:2;stroke-miterlimit:4;stroke-dasharray:none"
     transform="translate(2.7011719,2.703125)"><defs
       id="defs5"
       style="fill:url(#linearGradient5615);fill-opacity:1"><rect
         id="SVGID_1_"
         width="32"
         height="32"
         style="fill:url(#linearGradient5615);fill-opacity:1"
         x="0"
         y="0" /></defs><clipPath
       id="SVGID_2_"
       style="fill:url(#linearGradient5615);fill-opacity:1"><use
         xlink:href="#SVGID_1_"
         overflow="visible"
         id="use9"
         style="overflow:visible;fill:url(#linearGradient5615);fill-opacity:1"
         x="0"
         y="0"
         width="100%"
         height="100%" /></clipPath><g
       clip-path="url(#SVGID_2_)"
       id="g11"
       style="fill:#12a8e0;fill-opacity:1;stroke-width:2;stroke-miterlimit:4;stroke-dasharray:none"><defs
         id="defs13"
         style="fill:url(#linearGradient5615);fill-opacity:1"><rect
           id="SVGID_3_"
           width="32"
           height="32"
           style="fill:url(#linearGradient5615);fill-opacity:1"
           x="0"
           y="0" /></defs><clipPath
         id="SVGID_4_"
         style="fill:url(#linearGradient5615);fill-opacity:1"><use
           xlink:href="#SVGID_3_"
           overflow="visible"
           id="use17"
           style="overflow:visible;fill:url(#linearGradient5615);fill-opacity:1"
           x="0"
           y="0"
           width="100%"
           height="100%" /></clipPath><path
         sodipodi:type="inkscape:offset"
         inkscape:radius="1.6578319"
         inkscape:original="M 16.001953 2 C 8.2699531 2 2.0019531 5.0004531 2.0019531 12.189453 C 2.0019531 18.001453 16.001953 30.001953 16.001953 30.001953 C 16.001953 30.001953 30.001953 18.001453 30.001953 12.189453 C 30.001953 5.0004531 23.733953 2 16.001953 2 z M 16.001953 7 C 18.206953 7 20.001953 8.7959531 20.001953 11.001953 C 20.001953 13.207953 18.206953 15 16.001953 15 C 13.796953 15 12.001953 13.206953 12.001953 11.001953 C 12.001953 8.7959531 13.796953 7 16.001953 7 z "
         style="fill:#ffffff;fill-opacity:1;stroke-width:2;stroke-miterlimit:4;stroke-dasharray:none"
         id="path5623"
         d="M 16.001953,0.34179688 C 11.921509,0.34179687 8.1231374,1.1056816 5.1972656,3.0097656 2.2713938,4.9138496 0.34375,8.1131388 0.34375,12.189453 c 0,2.118567 1.0796288,4.102531 2.4726562,6.164063 1.3930275,2.061531 3.1897591,4.154141 4.9765626,6.05664 3.5736072,3.804998 7.1308592,6.84961 7.1308592,6.84961 a 1.6579977,1.6579977 0 0 0 2.15625,0 c 0,0 3.557253,-3.044612 7.13086,-6.84961 1.786803,-1.902499 3.583535,-3.995109 4.976562,-6.05664 1.393027,-2.061532 2.472656,-4.045496 2.472656,-6.164063 0,-4.0763142 -1.927644,-7.2756034 -4.853515,-9.1796874 C 23.880769,1.1056816 20.082397,0.34179688 16.001953,0.34179688 Z m 0,8.31640622 c 1.304807,0 2.341797,1.0370576 2.341797,2.3437499 0,1.306693 -1.035032,2.339844 -2.341797,2.339844 -1.306264,0 -2.341797,-1.034559 -2.341797,-2.339844 0,-1.3066923 1.03699,-2.3437499 2.341797,-2.3437499 z"
         inkscape:export-xdpi="90"
         inkscape:export-ydpi="90" /><path
         clip-path="url(#SVGID_4_)"
         d="m 16.001,2 c -7.732,0 -14,3 -14,10.189 0,5.812 14,17.812 14,17.812 0,0 14,-12 14,-17.812 C 30.001,5 23.733,2 16.001,2 m 0,13 c -2.205,0 -4,-1.794 -4,-3.999 0,-2.206 1.795,-4.001 4,-4.001 2.205,0 4,1.795 4,4.001 0,2.206 -1.795,3.999 -4,3.999"
         id="path19"
         style="fill:#12a8e0;fill-opacity:1;stroke-width:2;stroke-miterlimit:4;stroke-dasharray:none"
         inkscape:connector-curvature="0"
         inkscape:export-xdpi="90"
         inkscape:export-ydpi="90" /></g></g></svg>